<svg xmlns="http://www.w3.org/2000/svg" viewBox="0 0 828 110" role="img"><title>CLAPA</title><path fill="currentColor" d="M25.5 0H123V16H31C32.9 17.2 24.6 15.4 20 24V86C24.6 94.6 32.9 92.8 31 94H123V110H25.5C15.3 106.9 5.8 106.8 0 91.5V18.5C5.8 3.2 15.3 3.1 25.5 0ZM166 0H187V94H277V110H166ZM388.3 0H403.7L476.3 110H453.3L396 20L337.7 110H315.7ZM382.3 86a12.2 12.2 0 1 0 24.4 0 12.2 12.2 0 1 0-24.4 0ZM519 0H619C638 6.8 639.5 6.4 644 20.5V49.5C639.5 63.6 638 63.2 619 70H540V110H519ZM540 16V53H612C611.6 51.5 624 54 623 44.5V25C624 15.4 611.6 17.9 612 16H540ZM740.3 0H755.7L828 110H806L748 20L690 110H668.3ZM734.3 86a12.2 12.2 0 1 0 24.4 0 12.2 12.2 0 1 0-24.4 0Z"/></svg>